<svg width="55" height="38" viewBox="0 0 55 38" fill="none" xmlns="http://www.w3.org/2000/svg">
<path d="M45.3946 16.4319C45.7407 15.5284 45.935 14.5404 45.935 13.5103C45.935 9.035 42.3041 5.40411 37.8288 5.40411C36.1653 5.40411 34.6117 5.91075 33.3282 6.77203C30.9892 2.71894 26.6237 0 21.6165 0C14.152 0 8.10617 6.04585 8.10617 13.5103C8.10617 13.7383 8.11461 13.9663 8.12306 14.1942C3.39446 15.8577 0 20.3668 0 25.6695C0 32.3825 5.44633 37.8288 12.1593 37.8288H43.2329C49.2028 37.8288 54.0411 32.9904 54.0411 27.0206C54.0411 21.7938 50.3258 17.4283 45.3946 16.4319ZM33.2184 21.6165H27.6961V31.0737C27.6961 31.8167 27.0881 32.4247 26.3451 32.4247H22.292C21.5489 32.4247 20.9409 31.8167 20.9409 31.0737V21.6165H15.4186C14.2111 21.6165 13.6116 20.1641 14.4644 19.3113L23.3643 10.4114C23.8879 9.88784 24.7491 9.88784 25.2727 10.4114L34.1726 19.3113C35.0254 20.1641 34.4174 21.6165 33.2184 21.6165Z" fill="white"/>
</svg>
